<?xml version="1.0" encoding="utf-8"?>
<!-- Generator: Adobe Illustrator 21.0.0, SVG Export Plug-In . SVG Version: 6.00 Build 0)  -->
<svg version="1.1" xmlns="http://www.w3.org/2000/svg" xmlns:xlink="http://www.w3.org/1999/xlink" x="0px" y="0px"
	 viewBox="0 0 841.9 595.3" style="enable-background:new 0 0 841.9 595.3;" xml:space="preserve">
<style type="text/css">
	.st0{fill:#CCCCCC;stroke:#000000;stroke-miterlimit:10;}
	.st1{fill:none;stroke:#000000;stroke-width:0.75;stroke-miterlimit:10;}
	.st2{font-family:'MaiandraGD-Regular';}
	.st3{font-size:30px;}
	.st4{fill:#B3B3B3;stroke:#000000;stroke-miterlimit:10;}
	.st5{fill:#E6E6E6;stroke:#000000;stroke-miterlimit:10;}
	.st6{fill:#F2F2F2;stroke:#000000;stroke-miterlimit:10;}
	.st7{fill:none;stroke:#000000;stroke-width:0.5;stroke-miterlimit:10;}
	.st8{font-size:18px;}
	.st9{font-size:16px;}
	.st10{font-size:14px;}
	.st11{font-size:12px;}
</style>
<g id="Layer_2">
	<g>
		<polygon class="st0" points="175.2,286.1 14.6,13.3 331.2,10.6 		"/>
		<text transform="matrix(1 -3.211909e-03 3.211905e-03 1 112.9037 42.3815)" class="st1 st2 st3">HOME</text>
	</g>
</g>
<g id="Layer_8">
	<g id="Layer_1_1_">
		<polyline class="st4" points="0.6,17 108.1,199.5 2.2,200.4 		"/>
		<polyline class="st4" points="841.9,298.2 712.9,299.3 841.9,71.5 		"/>
		<polyline class="st4" points="0.6,210.2 103.9,209.3 -0.5,393.6 		"/>
		<polyline class="st4" points="842.4,499.3 729.2,307 840.8,306 		"/>
	</g>
	<g id="Layer_5">
		<polygon class="st5" points="566.6,352.7 614.2,433.6 520.3,434.3 		"/>
		<polygon class="st0" points="233.9,211.9 290.2,307.6 179.2,308.5 		"/>
		<polygon class="st4" points="115.1,210.8 158.6,284.7 72.9,285.4 		"/>
		<polygon class="st6" points="389,351.5 417.1,399.3 361.6,399.8 		"/>
		<polygon class="st5" points="512,447.2 536.1,488.1 488.6,488.5 		"/>
	</g>
	<g id="Layer_3">
		<polygon class="st5" points="562.7,330.2 487.2,202 636,200.8 		"/>
	</g>
</g>
<g id="Layer_3_1_">
	<g>
		<polygon class="st6" points="347.9,16.5 455.3,199.1 243.5,200.8 		"/>
		<text transform="matrix(1 -3.211909e-03 3.211905e-03 1 292.9039 192.3814)" class="st1 st2 st3">GALLERY</text>
	</g>
</g>
<g id="Layer_4_1_">
	<g>
		<polygon class="st6" points="353.5,390.3 246.7,208.7 457.4,207 		"/>
		<text transform="matrix(1 -3.211909e-03 3.211905e-03 1 295.9037 236.3815)" class="st1 st2 st3">ABOUT</text>
	</g>
</g>
<g id="Layer_5_1_">
	<g>
		<polygon class="st5" points="476.3,488.3 556.8,351.5 398,350.1 		"/>
		<g id="Layer_2_1_">
			<polygon class="st6" points="475.5,202.6 556.1,339.4 397.3,340.8 			"/>
		</g>
		<text transform="matrix(1 -3.211909e-03 3.211905e-03 1 428.4037 338.3815)" class="st1 st2 st3">LEARN</text>
		<text transform="matrix(1 -3.211909e-03 3.211905e-03 1 428.5193 374.3815)" class="st1 st2 st3">MORE</text>
	</g>
</g>
<g id="Layer_6">
	<g>
		<polygon class="st5" points="621.6,243.3 679.5,341.6 565.3,342.6 		"/>
		<g id="Layer_4">
			<polygon class="st0" points="569.8,526.3 620.3,440.5 520.7,439.7 			"/>
			<polygon class="st0" points="625.2,436.4 676.2,349.7 575.6,348.9 			"/>
			<polygon class="st0" points="685.1,331.3 738.1,241.2 633.6,240.3 			"/>
		</g>
		<text transform="matrix(1 -3.211909e-03 3.211905e-03 1 654.2365 258.4367)" class="st7 st2 st8">DESIGN</text>
		<g>
			<text transform="matrix(1 -3.211909e-03 3.211905e-03 1 577.7365 339.3537)" class="st7 st2 st9">MODELLING</text>
		</g>
		<g>
			<text transform="matrix(1 -3.211909e-03 3.211905e-03 1 585.2365 362.3826)" class="st7 st2 st10">RENDERING</text>
		</g>
		<text transform="matrix(1 -3.211909e-03 3.211905e-03 1 532.2365 452.8826)" class="st7 st2 st11">CONSULTING</text>
	</g>
</g>
<g id="Layer_7">
	<g>
		<polygon class="st0" points="713.4,310.1 841.7,528.1 588.8,530.2 		"/>
		<text transform="matrix(1 -3.211909e-03 3.211905e-03 1 621.7958 511.8835)" class="st1 st2 st3">CONTACT US</text>
	</g>
</g>
</svg>
